<?xml version="1.0" encoding="UTF-8"?>
<svg xmlns="http://www.w3.org/2000/svg" width="480" height="300" viewBox="0 0 480 300" preserveAspectRatio="xMidYMid slice">
  <defs>
    <linearGradient id="sky1" x1="0" y1="0" x2="0" y2="1">
      <stop offset="0" stop-color="#0c0e10"/><stop offset="0.7" stop-color="#171d20"/><stop offset="1" stop-color="#0a0c0d"/>
    </linearGradient>
  </defs>
  <rect width="480" height="300" fill="url(#sky1)"/><ellipse cx="256.5897691436112" cy="216" rx="221.8581048375927" ry="46" fill="#22c55e" opacity="0.06"/><g><rect x="0" y="69" width="59" height="117" fill="#171b1d"/><rect x="4" y="79" width="4" height="5" fill="#22c55e" opacity="0.35"/><rect x="63" y="90" width="60" height="96" fill="#171b1d"/><rect x="127" y="144" width="63" height="42" fill="#171b1d"/><rect x="194" y="122" width="34" height="64" fill="#171b1d"/><rect x="198" y="132" width="4" height="5" fill="#22c55e" opacity="0.35"/><rect x="232" y="117" width="30" height="69" fill="#171b1d"/><rect x="266" y="108" width="32" height="78" fill="#171b1d"/><rect x="301" y="141" width="57" height="45" fill="#171b1d"/><rect x="362" y="58" width="36" height="128" fill="#171b1d"/><rect x="366" y="68" width="4" height="5" fill="#22c55e" opacity="0.35"/><rect x="402" y="137" width="40" height="49" fill="#171b1d"/><rect x="406" y="147" width="4" height="5" fill="#22c55e" opacity="0.35"/><rect x="447" y="80" width="49" height="106" fill="#171b1d"/></g><rect x="21.134359585121274" y="148.29681051522493" width="99.08002910204232" height="85.70318948477507" fill="#1e2427"/><rect x="109.13435958512127" y="160.29681051522493" width="7" height="8" fill="#22c55e" opacity="0.45"/><rect x="93.13435958512127" y="176.29681051522493" width="7" height="8" fill="#22c55e" opacity="0.35"/><rect x="29.134359585121274" y="208.29681051522493" width="7" height="8" fill="#22c55e" opacity="0.38"/><rect x="51" y="136" width="18" height="12" fill="#171b1d"/><rect x="177.59032268077135" y="127.76108390511945" width="113.95174762234092" height="106.23891609488055" fill="#1e2427"/><rect x="217.59032268077135" y="139.76108390511945" width="7" height="8" fill="#22c55e" opacity="0.44"/><rect x="249.59032268077135" y="139.76108390511945" width="7" height="8" fill="#22c55e" opacity="0.41"/><rect x="265.59032268077135" y="155.76108390511945" width="7" height="8" fill="#22c55e" opacity="0.47"/><rect x="233.59032268077135" y="171.76108390511945" width="7" height="8" fill="#22c55e" opacity="0.47"/><rect x="201.59032268077135" y="187.76108390511945" width="7" height="8" fill="#22c55e" opacity="0.32"/><rect x="201.59032268077135" y="203.76108390511945" width="7" height="8" fill="#22c55e" opacity="0.62"/><rect x="185.59032268077135" y="219.76108390511945" width="7" height="8" fill="#22c55e" opacity="0.64"/><rect x="249.59032268077135" y="219.76108390511945" width="7" height="8" fill="#22c55e" opacity="0.38"/><rect x="212" y="116" width="21" height="12" fill="#171b1d"/><rect x="307.8440276440233" y="100.47399559617043" width="74.17444535531104" height="133.52600440382957" fill="#1e2427"/><rect x="331.8440276440233" y="112.47399559617043" width="7" height="8" fill="#22c55e" opacity="0.47"/><rect x="331.8440276440233" y="128.47399559617043" width="7" height="8" fill="#22c55e" opacity="0.50"/><rect x="363.8440276440233" y="160.47399559617043" width="7" height="8" fill="#22c55e" opacity="0.35"/><rect x="347.8440276440233" y="176.47399559617043" width="7" height="8" fill="#22c55e" opacity="0.62"/><rect x="347.8440276440233" y="192.47399559617043" width="7" height="8" fill="#22c55e" opacity="0.59"/><rect x="363.8440276440233" y="192.47399559617043" width="7" height="8" fill="#22c55e" opacity="0.51"/><rect x="347.8440276440233" y="208.47399559617043" width="7" height="8" fill="#22c55e" opacity="0.62"/><rect x="330" y="88" width="13" height="12" fill="#171b1d"/><rect x="205" y="236" width="9" height="5" fill="#0c0f10" opacity="0.9" transform="rotate(-11 205 236)"/><rect x="6" y="289" width="7" height="4" fill="#0c0f10" opacity="0.9" transform="rotate(18 6 289)"/><rect x="126" y="264" width="9" height="5" fill="#0c0f10" opacity="0.9" transform="rotate(-16 126 264)"/><rect x="3" y="275" width="8" height="5" fill="#0c0f10" opacity="0.9" transform="rotate(-15 3 275)"/><rect x="32" y="281" width="10" height="6" fill="#0c0f10" opacity="0.9" transform="rotate(0 32 281)"/><rect x="330" y="258" width="8" height="5" fill="#0c0f10" opacity="0.9" transform="rotate(-0 330 258)"/><rect x="93" y="290" width="8" height="5" fill="#0c0f10" opacity="0.9" transform="rotate(-6 93 290)"/><rect x="465" y="276" width="3" height="2" fill="#0c0f10" opacity="0.9" transform="rotate(-20 465 276)"/><rect x="434" y="279" width="4" height="2" fill="#0c0f10" opacity="0.9" transform="rotate(16 434 279)"/><rect x="402" y="290" width="8" height="5" fill="#0c0f10" opacity="0.9" transform="rotate(-15 402 290)"/><rect x="312" y="249" width="5" height="3" fill="#0c0f10" opacity="0.9" transform="rotate(-2 312 249)"/><rect x="199" y="262" width="6" height="4" fill="#0c0f10" opacity="0.9" transform="rotate(11 199 262)"/><rect x="207" y="251" width="10" height="6" fill="#0c0f10" opacity="0.9" transform="rotate(-4 207 251)"/><rect x="109" y="278" width="10" height="6" fill="#0c0f10" opacity="0.9" transform="rotate(4 109 278)"/><rect x="338" y="272" width="9" height="5" fill="#0c0f10" opacity="0.9" transform="rotate(6 338 272)"/><rect x="271" y="261" width="4" height="2" fill="#0c0f10" opacity="0.9" transform="rotate(16 271 261)"/><rect x="65" y="237" width="5" height="3" fill="#0c0f10" opacity="0.9" transform="rotate(-2 65 237)"/><rect x="408" y="281" width="8" height="5" fill="#0c0f10" opacity="0.9" transform="rotate(-1 408 281)"/><rect x="157" y="248" width="4" height="2" fill="#0c0f10" opacity="0.9" transform="rotate(11 157 248)"/><rect x="104" y="267" width="4" height="3" fill="#0c0f10" opacity="0.9" transform="rotate(-5 104 267)"/><rect x="229" y="292" width="7" height="4" fill="#0c0f10" opacity="0.9" transform="rotate(20 229 292)"/><rect x="197" y="284" width="9" height="6" fill="#0c0f10" opacity="0.9" transform="rotate(1 197 284)"/><rect x="298" y="248" width="9" height="5" fill="#0c0f10" opacity="0.9" transform="rotate(4 298 248)"/><rect x="454" y="292" width="9" height="5" fill="#0c0f10" opacity="0.9" transform="rotate(-7 454 292)"/><rect x="239" y="286" width="8" height="5" fill="#0c0f10" opacity="0.9" transform="rotate(-7 239 286)"/><rect x="306" y="239" width="5" height="3" fill="#0c0f10" opacity="0.9" transform="rotate(-17 306 239)"/><rect x="0" y="294" width="480" height="6" fill="#22c55e" opacity="0.14"/><rect x="174" y="100" width="2" height="2" fill="#ffffff" opacity="0.037"/><rect x="350" y="110" width="2" height="2" fill="#ffffff" opacity="0.036"/><rect x="40" y="146" width="2" height="2" fill="#ffffff" opacity="0.040"/><rect x="400" y="101" width="2" height="2" fill="#ffffff" opacity="0.040"/><rect x="79" y="35" width="2" height="2" fill="#ffffff" opacity="0.012"/><rect x="37" y="110" width="2" height="2" fill="#ffffff" opacity="0.035"/><rect x="419" y="277" width="2" height="2" fill="#ffffff" opacity="0.043"/><rect x="182" y="292" width="2" height="2" fill="#ffffff" opacity="0.038"/><rect x="231" y="201" width="2" height="2" fill="#ffffff" opacity="0.023"/><rect x="302" y="53" width="2" height="2" fill="#ffffff" opacity="0.011"/><rect x="285" y="207" width="2" height="2" fill="#ffffff" opacity="0.017"/><rect x="116" y="67" width="2" height="2" fill="#ffffff" opacity="0.023"/><rect x="133" y="203" width="2" height="2" fill="#ffffff" opacity="0.011"/><rect x="54" y="4" width="2" height="2" fill="#ffffff" opacity="0.026"/><rect x="460" y="63" width="2" height="2" fill="#ffffff" opacity="0.036"/><rect x="301" y="211" width="2" height="2" fill="#ffffff" opacity="0.004"/><rect x="137" y="44" width="2" height="2" fill="#ffffff" opacity="0.035"/><rect x="217" y="157" width="2" height="2" fill="#ffffff" opacity="0.043"/><rect x="276" y="85" width="2" height="2" fill="#ffffff" opacity="0.012"/><rect x="161" y="83" width="2" height="2" fill="#ffffff" opacity="0.025"/><rect x="156" y="154" width="2" height="2" fill="#ffffff" opacity="0.022"/><rect x="234" y="114" width="2" height="2" fill="#ffffff" opacity="0.013"/><rect x="30" y="255" width="2" height="2" fill="#ffffff" opacity="0.034"/><rect x="461" y="160" width="2" height="2" fill="#ffffff" opacity="0.020"/><rect x="266" y="61" width="2" height="2" fill="#ffffff" opacity="0.038"/><rect x="146" y="233" width="2" height="2" fill="#ffffff" opacity="0.021"/><rect x="57" y="196" width="2" height="2" fill="#ffffff" opacity="0.004"/><rect x="41" y="107" width="2" height="2" fill="#ffffff" opacity="0.021"/><rect x="411" y="2" width="2" height="2" fill="#ffffff" opacity="0.010"/><rect x="179" y="230" width="2" height="2" fill="#ffffff" opacity="0.031"/><rect x="31" y="231" width="2" height="2" fill="#ffffff" opacity="0.040"/><rect x="400" y="43" width="2" height="2" fill="#ffffff" opacity="0.008"/><rect x="286" y="235" width="2" height="2" fill="#ffffff" opacity="0.025"/><rect x="263" y="201" width="2" height="2" fill="#ffffff" opacity="0.031"/><rect x="228" y="12" width="2" height="2" fill="#ffffff" opacity="0.009"/><rect x="395" y="51" width="2" height="2" fill="#ffffff" opacity="0.008"/><rect x="307" y="129" width="2" height="2" fill="#ffffff" opacity="0.027"/><rect x="352" y="42" width="2" height="2" fill="#ffffff" opacity="0.011"/><rect x="15" y="56" width="2" height="2" fill="#ffffff" opacity="0.035"/><rect x="274" y="268" width="2" height="2" fill="#ffffff" opacity="0.016"/><rect x="209" y="31" width="2" height="2" fill="#ffffff" opacity="0.020"/><rect x="71" y="85" width="2" height="2" fill="#ffffff" opacity="0.014"/><rect x="204" y="53" width="2" height="2" fill="#ffffff" opacity="0.030"/><rect x="301" y="63" width="2" height="2" fill="#ffffff" opacity="0.003"/><rect x="38" y="285" width="2" height="2" fill="#ffffff" opacity="0.006"/><rect x="478" y="78" width="2" height="2" fill="#ffffff" opacity="0.028"/><rect x="410" y="27" width="2" height="2" fill="#ffffff" opacity="0.012"/><rect x="116" y="84" width="2" height="2" fill="#ffffff" opacity="0.034"/><rect x="47" y="191" width="2" height="2" fill="#ffffff" opacity="0.046"/><rect x="254" y="131" width="2" height="2" fill="#ffffff" opacity="0.019"/><rect x="350" y="210" width="2" height="2" fill="#ffffff" opacity="0.042"/><rect x="159" y="107" width="2" height="2" fill="#ffffff" opacity="0.034"/><rect x="142" y="80" width="2" height="2" fill="#ffffff" opacity="0.034"/><rect x="325" y="217" width="2" height="2" fill="#ffffff" opacity="0.045"/><rect x="189" y="259" width="2" height="2" fill="#ffffff" opacity="0.017"/><rect x="384" y="73" width="2" height="2" fill="#ffffff" opacity="0.000"/><rect x="469" y="243" width="2" height="2" fill="#ffffff" opacity="0.009"/><rect x="147" y="92" width="2" height="2" fill="#ffffff" opacity="0.028"/><rect x="97" y="143" width="2" height="2" fill="#ffffff" opacity="0.027"/><rect x="238" y="65" width="2" height="2" fill="#ffffff" opacity="0.013"/>
</svg>