<?xml version="1.0" encoding="UTF-8"?>
<svg xmlns="http://www.w3.org/2000/svg" width="96" height="96" viewBox="0 0 96 96">
  <rect width="96" height="96" fill="#141414"/>
  <rect width="96" height="4" fill="#d4d4d4" opacity="0.25"/>
  <path d="M18 96 q2 -21.306130905169994 30 -25.306130905169994 q28 2 30 25.306130905169994 z" fill="#333333"/>
  <path d="M26 76.69386909483 L72 96" stroke="#0f0f0f" stroke-width="5" opacity="0.85"/>
  <rect x="38" y="66.69386909483" width="20" height="6" rx="2" fill="#d4d4d4" opacity="0.85"/>
  <path d="M24.21257889084518 55.61728561669588 q0 -25.78742110915482 23.78742110915482 -25.78742110915482 q23.78742110915482 0 23.78742110915482 25.78742110915482 l0 6 q-23.78742110915482 -4 -47.57484221830964 0 z" fill="#333333" opacity="0.9"/>
  <circle cx="48" cy="39.82986450754106" r="15.78742110915482" fill="#c9a68a"/>
  <path d="M30.21257889084518 39.82986450754106 a17.78742110915482 17.78742110915482 0 0 1 35.57484221830964 0 l0 11.051194776408373 q-15.78742110915482 7.89371055457741 -35.57484221830964 0 z" fill="#151515"/>
  <rect x="39.31691838996485" y="37.82986450754106" width="4" height="3" fill="#0a0a0a"/><rect x="51.15748422183096" y="37.82986450754106" width="4" height="3" fill="#0a0a0a"/>
  
  <rect x="0.5" y="0.5" width="95" height="95" fill="none" stroke="#000000" opacity="0.6"/>
</svg>