<?xml version="1.0" encoding="UTF-8"?>
<svg xmlns="http://www.w3.org/2000/svg" width="96" height="96" viewBox="0 0 96 96">
  <rect width="96" height="96" fill="#141414"/>
  <rect width="96" height="4" fill="#d4d4d4" opacity="0.25"/>
  <path d="M18 96 q2 -21.39904640847817 30 -25.39904640847817 q28 2 30 25.39904640847817 z" fill="#333333"/>
  <path d="M26 76.60095359152183 L72 96" stroke="#0f0f0f" stroke-width="5" opacity="0.85"/>
  <rect x="38" y="66.60095359152183" width="20" height="6" rx="2" fill="#d4d4d4" opacity="0.85"/>
  <path d="M25.0491326386109 56.43558473326266 q0 -24.9508673613891 22.9508673613891 -24.9508673613891 q22.9508673613891 0 22.9508673613891 24.9508673613891 l0 6 q-22.9508673613891 -4 -45.9017347227782 0 z" fill="#333333" opacity="0.9"/>
  <circle cx="48" cy="41.48471737187356" r="14.9508673613891" fill="#a97e5f"/>
  <path d="M31.0491326386109 41.48471737187356 a16.9508673613891 16.9508673613891 0 0 1 33.9017347227782 0 l0 10.46560715297237 q-14.9508673613891 7.47543368069455 -33.9017347227782 0 z" fill="#151515"/>
  
  <rect x="36.03930611088872" y="45.22243421222083" width="23.921387778222563" height="11.213150521041825" rx="3" fill="#3f4a3f" opacity="0.95"/>
  <rect x="0.5" y="0.5" width="95" height="95" fill="none" stroke="#000000" opacity="0.6"/>
</svg>