<?xml version="1.0" encoding="UTF-8"?>
<svg xmlns="http://www.w3.org/2000/svg" width="480" height="300" viewBox="0 0 480 300" preserveAspectRatio="xMidYMid slice">
  <defs>
    <linearGradient id="sky10" x1="0" y1="0" x2="0" y2="1">
      <stop offset="0" stop-color="#0c0e10"/><stop offset="0.7" stop-color="#171d20"/><stop offset="1" stop-color="#0a0c0d"/>
    </linearGradient>
  </defs>
  <rect width="480" height="300" fill="url(#sky10)"/><ellipse cx="137.87627460435033" cy="216" rx="259.12303099641576" ry="46" fill="#22c55e" opacity="0.06"/><g><rect x="0" y="116" width="37" height="70" fill="#171b1d"/><rect x="4" y="126" width="4" height="5" fill="#22c55e" opacity="0.35"/><rect x="41" y="130" width="62" height="56" fill="#171b1d"/><rect x="45" y="140" width="4" height="5" fill="#22c55e" opacity="0.35"/><rect x="107" y="57" width="36" height="129" fill="#171b1d"/><rect x="147" y="102" width="30" height="84" fill="#171b1d"/><rect x="151" y="112" width="4" height="5" fill="#22c55e" opacity="0.35"/><rect x="181" y="106" width="53" height="80" fill="#171b1d"/><rect x="238" y="79" width="51" height="107" fill="#171b1d"/><rect x="292" y="120" width="29" height="66" fill="#171b1d"/><rect x="296" y="130" width="4" height="5" fill="#22c55e" opacity="0.35"/><rect x="325" y="123" width="60" height="63" fill="#171b1d"/><rect x="389" y="113" width="38" height="73" fill="#171b1d"/><rect x="431" y="63" width="42" height="123" fill="#171b1d"/><rect x="477" y="56" width="64" height="130" fill="#171b1d"/></g><rect x="34.80153596960008" y="126.23206617403775" width="84.20609039720148" height="107.76793382596225" fill="#1e2427"/><rect x="42.80153596960008" y="154.23206617403775" width="7" height="8" fill="#22c55e" opacity="0.55"/><rect x="106.80153596960008" y="154.23206617403775" width="7" height="8" fill="#22c55e" opacity="0.50"/><rect x="74.80153596960008" y="170.23206617403775" width="7" height="8" fill="#22c55e" opacity="0.27"/><rect x="90.80153596960008" y="170.23206617403775" width="7" height="8" fill="#22c55e" opacity="0.31"/><rect x="106.80153596960008" y="186.23206617403775" width="7" height="8" fill="#22c55e" opacity="0.42"/><rect x="74.80153596960008" y="202.23206617403775" width="7" height="8" fill="#22c55e" opacity="0.32"/><rect x="90.80153596960008" y="202.23206617403775" width="7" height="8" fill="#22c55e" opacity="0.33"/><rect x="60" y="114" width="15" height="12" fill="#171b1d"/><rect x="169.81528234202415" y="154.99441786762327" width="77.42279388476163" height="79.00558213237673" fill="#1e2427"/><rect x="225.81528234202415" y="182.99441786762327" width="7" height="8" fill="#22c55e" opacity="0.59"/><rect x="193.81528234202415" y="198.99441786762327" width="7" height="8" fill="#22c55e" opacity="0.46"/><rect x="193.81528234202415" y="214.99441786762327" width="7" height="8" fill="#22c55e" opacity="0.27"/><rect x="193" y="143" width="14" height="12" fill="#171b1d"/><rect x="310.6909757293761" y="128.74902075715363" width="104.63423195760697" height="105.25097924284637" fill="#1e2427"/><rect x="382.6909757293761" y="140.74902075715363" width="7" height="8" fill="#22c55e" opacity="0.47"/><rect x="334.6909757293761" y="156.74902075715363" width="7" height="8" fill="#22c55e" opacity="0.42"/><rect x="366.6909757293761" y="156.74902075715363" width="7" height="8" fill="#22c55e" opacity="0.51"/><rect x="366.6909757293761" y="172.74902075715363" width="7" height="8" fill="#22c55e" opacity="0.38"/><rect x="350.6909757293761" y="188.74902075715363" width="7" height="8" fill="#22c55e" opacity="0.40"/><rect x="318.6909757293761" y="204.74902075715363" width="7" height="8" fill="#22c55e" opacity="0.59"/><rect x="318.6909757293761" y="220.74902075715363" width="7" height="8" fill="#22c55e" opacity="0.31"/><rect x="334.6909757293761" y="220.74902075715363" width="7" height="8" fill="#22c55e" opacity="0.61"/><rect x="350.6909757293761" y="220.74902075715363" width="7" height="8" fill="#22c55e" opacity="0.33"/><rect x="342" y="117" width="19" height="12" fill="#171b1d"/><rect x="299" y="248" width="7" height="4" fill="#0c0f10" opacity="0.9" transform="rotate(3 299 248)"/><rect x="232" y="251" width="8" height="5" fill="#0c0f10" opacity="0.9" transform="rotate(2 232 251)"/><rect x="323" y="265" width="11" height="7" fill="#0c0f10" opacity="0.9" transform="rotate(1 323 265)"/><rect x="304" y="266" width="5" height="3" fill="#0c0f10" opacity="0.9" transform="rotate(-19 304 266)"/><rect x="50" y="263" width="5" height="3" fill="#0c0f10" opacity="0.9" transform="rotate(19 50 263)"/><rect x="64" y="245" width="11" height="6" fill="#0c0f10" opacity="0.9" transform="rotate(-15 64 245)"/><rect x="179" y="276" width="5" height="3" fill="#0c0f10" opacity="0.9" transform="rotate(-10 179 276)"/><rect x="136" y="253" width="5" height="3" fill="#0c0f10" opacity="0.9" transform="rotate(-12 136 253)"/><rect x="376" y="240" width="5" height="3" fill="#0c0f10" opacity="0.9" transform="rotate(16 376 240)"/><rect x="144" y="278" width="3" height="2" fill="#0c0f10" opacity="0.9" transform="rotate(19 144 278)"/><rect x="354" y="245" width="10" height="6" fill="#0c0f10" opacity="0.9" transform="rotate(-2 354 245)"/><rect x="166" y="239" width="6" height="4" fill="#0c0f10" opacity="0.9" transform="rotate(-16 166 239)"/><rect x="304" y="260" width="9" height="6" fill="#0c0f10" opacity="0.9" transform="rotate(12 304 260)"/><rect x="295" y="294" width="10" height="6" fill="#0c0f10" opacity="0.9" transform="rotate(13 295 294)"/><rect x="118" y="244" width="6" height="4" fill="#0c0f10" opacity="0.9" transform="rotate(16 118 244)"/><rect x="386" y="245" width="9" height="5" fill="#0c0f10" opacity="0.9" transform="rotate(-8 386 245)"/><rect x="397" y="283" width="5" height="3" fill="#0c0f10" opacity="0.9" transform="rotate(2 397 283)"/><rect x="340" y="275" width="4" height="2" fill="#0c0f10" opacity="0.9" transform="rotate(3 340 275)"/><rect x="313" y="252" width="4" height="2" fill="#0c0f10" opacity="0.9" transform="rotate(-15 313 252)"/><rect x="464" y="269" width="3" height="2" fill="#0c0f10" opacity="0.9" transform="rotate(11 464 269)"/><rect x="401" y="272" width="10" height="6" fill="#0c0f10" opacity="0.9" transform="rotate(9 401 272)"/><rect x="472" y="246" width="5" height="3" fill="#0c0f10" opacity="0.9" transform="rotate(-6 472 246)"/><rect x="432" y="290" width="8" height="5" fill="#0c0f10" opacity="0.9" transform="rotate(-18 432 290)"/><rect x="311" y="246" width="9" height="5" fill="#0c0f10" opacity="0.9" transform="rotate(17 311 246)"/><rect x="129" y="288" width="7" height="4" fill="#0c0f10" opacity="0.9" transform="rotate(7 129 288)"/><rect x="250" y="279" width="3" height="2" fill="#0c0f10" opacity="0.9" transform="rotate(12 250 279)"/><rect x="0" y="294" width="480" height="6" fill="#22c55e" opacity="0.14"/><rect x="87" y="157" width="2" height="2" fill="#ffffff" opacity="0.045"/><rect x="409" y="13" width="2" height="2" fill="#ffffff" opacity="0.026"/><rect x="290" y="248" width="2" height="2" fill="#ffffff" opacity="0.018"/><rect x="217" y="160" width="2" height="2" fill="#ffffff" opacity="0.037"/><rect x="284" y="67" width="2" height="2" fill="#ffffff" opacity="0.021"/><rect x="97" y="210" width="2" height="2" fill="#ffffff" opacity="0.037"/><rect x="145" y="48" width="2" height="2" fill="#ffffff" opacity="0.037"/><rect x="138" y="144" width="2" height="2" fill="#ffffff" opacity="0.018"/><rect x="147" y="206" width="2" height="2" fill="#ffffff" opacity="0.019"/><rect x="216" y="141" width="2" height="2" fill="#ffffff" opacity="0.011"/><rect x="430" y="110" width="2" height="2" fill="#ffffff" opacity="0.045"/><rect x="342" y="256" width="2" height="2" fill="#ffffff" opacity="0.044"/><rect x="144" y="25" width="2" height="2" fill="#ffffff" opacity="0.005"/><rect x="124" y="157" width="2" height="2" fill="#ffffff" opacity="0.030"/><rect x="42" y="278" width="2" height="2" fill="#ffffff" opacity="0.003"/><rect x="152" y="163" width="2" height="2" fill="#ffffff" opacity="0.022"/><rect x="30" y="55" width="2" height="2" fill="#ffffff" opacity="0.013"/><rect x="261" y="37" width="2" height="2" fill="#ffffff" opacity="0.023"/><rect x="387" y="264" width="2" height="2" fill="#ffffff" opacity="0.038"/><rect x="71" y="71" width="2" height="2" fill="#ffffff" opacity="0.010"/><rect x="363" y="197" width="2" height="2" fill="#ffffff" opacity="0.016"/><rect x="412" y="206" width="2" height="2" fill="#ffffff" opacity="0.008"/><rect x="130" y="272" width="2" height="2" fill="#ffffff" opacity="0.019"/><rect x="169" y="130" width="2" height="2" fill="#ffffff" opacity="0.039"/><rect x="82" y="238" width="2" height="2" fill="#ffffff" opacity="0.049"/><rect x="189" y="210" width="2" height="2" fill="#ffffff" opacity="0.027"/><rect x="118" y="112" width="2" height="2" fill="#ffffff" opacity="0.003"/><rect x="356" y="202" width="2" height="2" fill="#ffffff" opacity="0.049"/><rect x="43" y="290" width="2" height="2" fill="#ffffff" opacity="0.009"/><rect x="57" y="73" width="2" height="2" fill="#ffffff" opacity="0.036"/><rect x="441" y="207" width="2" height="2" fill="#ffffff" opacity="0.022"/><rect x="70" y="130" width="2" height="2" fill="#ffffff" opacity="0.019"/><rect x="133" y="10" width="2" height="2" fill="#ffffff" opacity="0.022"/><rect x="167" y="61" width="2" height="2" fill="#ffffff" opacity="0.008"/><rect x="324" y="259" width="2" height="2" fill="#ffffff" opacity="0.020"/><rect x="442" y="85" width="2" height="2" fill="#ffffff" opacity="0.023"/><rect x="108" y="282" width="2" height="2" fill="#ffffff" opacity="0.018"/><rect x="18" y="221" width="2" height="2" fill="#ffffff" opacity="0.016"/><rect x="351" y="156" width="2" height="2" fill="#ffffff" opacity="0.046"/><rect x="120" y="176" width="2" height="2" fill="#ffffff" opacity="0.034"/><rect x="186" y="42" width="2" height="2" fill="#ffffff" opacity="0.011"/><rect x="272" y="72" width="2" height="2" fill="#ffffff" opacity="0.002"/><rect x="393" y="33" width="2" height="2" fill="#ffffff" opacity="0.022"/><rect x="273" y="166" width="2" height="2" fill="#ffffff" opacity="0.024"/><rect x="355" y="78" width="2" height="2" fill="#ffffff" opacity="0.039"/><rect x="233" y="188" width="2" height="2" fill="#ffffff" opacity="0.017"/><rect x="214" y="271" width="2" height="2" fill="#ffffff" opacity="0.029"/><rect x="465" y="263" width="2" height="2" fill="#ffffff" opacity="0.003"/><rect x="339" y="292" width="2" height="2" fill="#ffffff" opacity="0.041"/><rect x="336" y="86" width="2" height="2" fill="#ffffff" opacity="0.023"/><rect x="131" y="257" width="2" height="2" fill="#ffffff" opacity="0.020"/><rect x="134" y="268" width="2" height="2" fill="#ffffff" opacity="0.011"/><rect x="150" y="157" width="2" height="2" fill="#ffffff" opacity="0.044"/><rect x="332" y="260" width="2" height="2" fill="#ffffff" opacity="0.025"/><rect x="31" y="67" width="2" height="2" fill="#ffffff" opacity="0.013"/><rect x="440" y="58" width="2" height="2" fill="#ffffff" opacity="0.040"/><rect x="431" y="76" width="2" height="2" fill="#ffffff" opacity="0.035"/><rect x="408" y="286" width="2" height="2" fill="#ffffff" opacity="0.007"/><rect x="59" y="139" width="2" height="2" fill="#ffffff" opacity="0.040"/><rect x="346" y="253" width="2" height="2" fill="#ffffff" opacity="0.018"/>
</svg>