<?xml version="1.0" encoding="UTF-8"?>
<svg xmlns="http://www.w3.org/2000/svg" width="96" height="96" viewBox="0 0 96 96">
  <rect width="96" height="96" fill="#141414"/>
  <rect width="96" height="4" fill="#d4d4d4" opacity="0.25"/>
  <path d="M18 96 q2 -22.87178634153679 30 -26.87178634153679 q28 2 30 26.87178634153679 z" fill="#333333"/>
  <path d="M26 75.12821365846321 L72 96" stroke="#0f0f0f" stroke-width="5" opacity="0.85"/>
  <rect x="38" y="65.12821365846321" width="20" height="6" rx="2" fill="#d4d4d4" opacity="0.85"/>
  <path d="M25.188877819571644 55.02101026987657 q0 -24.811122180428356 22.811122180428356 -24.811122180428356 q22.811122180428356 0 22.811122180428356 24.811122180428356 l0 6 q-22.811122180428356 -4 -45.62224436085671 0 z" fill="#333333" opacity="0.9"/>
  <circle cx="48" cy="40.209888089448214" r="14.811122180428356" fill="#6d4a33"/>
  <path d="M31.188877819571644 40.209888089448214 a16.811122180428356 16.811122180428356 0 0 1 33.62224436085671 0 l0 10.367785526299848 q-14.811122180428356 7.405561090214178 -33.62224436085671 0 z" fill="#151515"/>
  <rect x="39.8538828007644" y="38.209888089448214" width="4" height="3" fill="#0a0a0a"/><rect x="50.96222443608567" y="38.209888089448214" width="4" height="3" fill="#0a0a0a"/>
  
  <rect x="0.5" y="0.5" width="95" height="95" fill="none" stroke="#000000" opacity="0.6"/>
</svg>