<?xml version="1.0" encoding="UTF-8"?>
<svg xmlns="http://www.w3.org/2000/svg" width="96" height="96" viewBox="0 0 96 96">
  <rect width="96" height="96" fill="#17181a"/>
  <rect width="96" height="4" fill="#9ca3af" opacity="0.25"/>
  <path d="M18 96 q2 -20.844440846005455 30 -24.844440846005455 q28 2 30 24.844440846005455 z" fill="#383b3f"/>
  <path d="M26 77.15555915399455 L72 96" stroke="#0f0f0f" stroke-width="5" opacity="0.85"/>
  <rect x="38" y="67.15555915399455" width="20" height="6" rx="2" fill="#9ca3af" opacity="0.85"/>
  <path d="M23.923362880246714 56.09372142306529 q0 -26.076637119753286 24.076637119753286 -26.076637119753286 q24.076637119753286 0 24.076637119753286 26.076637119753286 l0 6 q-24.076637119753286 -4 -48.15327423950657 0 z" fill="#383b3f" opacity="0.9"/>
  <circle cx="48" cy="40.017084303312004" r="16.076637119753286" fill="#a97e5f"/>
  <path d="M31.923362880246714 34.390261311398355 a16.076637119753286 16.076637119753286 0 0 1 32.15327423950657 0 l0 -4 a16.076637119753286 16.076637119753286 0 0 0 -32.15327423950657 0 z" fill="#1c1c1c"/>
  
  <rect x="35.13869030419737" y="44.036243583250325" width="25.72261939160526" height="12.057477839814965" rx="3" fill="#3f4a3f" opacity="0.95"/>
  <rect x="0.5" y="0.5" width="95" height="95" fill="none" stroke="#000000" opacity="0.6"/>
</svg>